<svg
                  xmlns="http://www.w3.org/2000/svg"
                  width="26"
                  height="24"
                  viewBox="0 0 26 24"
                  fill="none"
                >
                  <path
                    d="M12.5754 8.77583C12.7917 8.55954 13.132 8.54291 13.3674 8.72592L13.4239 8.77583L16.4239 11.7758C16.6402 11.9921 16.6569 12.3325 16.4738 12.5678L16.4239 12.6244L13.4239 15.6244C13.1896 15.8587 12.8097 15.8587 12.5754 15.6244C12.3591 15.4081 12.3425 15.0677 12.5255 14.8324L12.5754 14.7758L15.1507 12.2001L12.5754 9.62436C12.3591 9.40807 12.3425 9.06773 12.5255 8.83236L12.5754 8.77583Z"
                    fill="#0049FF"
                  />
                  <path
                    d="M7.6 12.8001C7.26863 12.8001 7 12.5315 7 12.2001C7 11.8924 7.23162 11.6388 7.53003 11.6041L7.6 11.6001L14.8 11.6001C15.1314 11.6001 15.4 11.8687 15.4 12.2001C15.4 12.5078 15.1684 12.7614 14.87 12.7961L14.8 12.8001H7.6Z"
                    fill="#0049FF"
                  />
                  <path
                    d="M12 5C11.0414 5 10.2579 5.74935 10.2031 6.69424L10.2 6.8V8C10.2 8.33137 10.4687 8.6 10.8 8.6C11.1077 8.6 11.3614 8.36838 11.396 8.06997L11.4 8V6.8C11.4 6.4923 11.6317 6.2387 11.9301 6.20404L12 6.2H18C18.3078 6.2 18.5614 6.43162 18.596 6.73003L18.6 6.8V17.6C18.6 17.9077 18.3684 18.1613 18.07 18.196L18 18.2H12C11.6923 18.2 11.4387 17.9684 11.4041 17.67L11.4 17.6V16.4C11.4 16.0686 11.1314 15.8 10.8 15.8C10.4923 15.8 10.2387 16.0316 10.2041 16.33L10.2 16.4V17.6C10.2 18.5586 10.9494 19.3422 11.8943 19.3969L12 19.4H18C18.9587 19.4 19.7422 18.6506 19.797 17.7058L19.8 17.6V6.8C19.8 5.84139 19.0507 5.0578 18.1058 5.00306L18 5H12Z"
                    fill="#0049FF"
                  />
                </svg>