<svg xmlns="http://www.w3.org/2000/svg" width="26" height="24" viewBox="0 0 26 24" fill="none">
  <path d="M16.7756 8.57564C16.9919 8.35935 17.3322 8.34271 17.5676 8.52573L17.6241 8.57564L20.6241 11.5756C20.8404 11.7919 20.857 12.1323 20.674 12.3676L20.6241 12.4242L17.6241 15.4242C17.3898 15.6585 17.0099 15.6585 16.7756 15.4242C16.5593 15.2079 16.5427 14.8675 16.7257 14.6322L16.7756 14.5756L19.3509 11.9999L16.7756 9.42417C16.5593 9.20788 16.5427 8.86754 16.7257 8.63216L16.7756 8.57564Z" fill="#DE3412"/>
  <path d="M11.8 12.5999C11.4686 12.5999 11.2 12.3313 11.2 11.9999C11.2 11.6922 11.4316 11.4386 11.73 11.4039L11.8 11.3999L19 11.3999C19.3313 11.3999 19.6 11.6685 19.6 11.9999C19.6 12.3076 19.3683 12.5612 19.0699 12.5959L19 12.5999H11.8Z" fill="#DE3412"/>
  <path d="M13 4.7998C13.9586 4.7998 14.7421 5.54916 14.7969 6.49404L14.8 6.5998V7.7998C14.8 8.13118 14.5313 8.3998 14.2 8.3998C13.8923 8.3998 13.6386 8.16818 13.604 7.86978L13.6 7.7998V6.5998C13.6 6.2921 13.3683 6.0385 13.0699 6.00384L13 5.9998H6.99995C6.69225 5.9998 6.43865 6.23143 6.40399 6.52983L6.39995 6.5998V17.3998C6.39995 17.7075 6.63158 17.9611 6.92998 17.9958L6.99995 17.9998H13C13.3077 17.9998 13.5613 17.7682 13.5959 17.4698L13.6 17.3998V16.1998C13.6 15.8684 13.8686 15.5998 14.2 15.5998C14.5077 15.5998 14.7613 15.8314 14.7959 16.1298L14.8 16.1998V17.3998C14.8 18.3584 14.0506 19.142 13.1057 19.1967L13 19.1998H6.99995C6.04134 19.1998 5.25775 18.4505 5.20301 17.5056L5.19995 17.3998V6.5998C5.19995 5.6412 5.9493 4.85761 6.89419 4.80286L6.99995 4.7998H13Z" fill="#DE3412"/>
</svg>